<svg height="50" viewBox="0 0 128 128" width="50" xmlns="http://www.w3.org/2000/svg"><path d="M-80.333-138l-39.667.022s-15.333 1.963-16.667 13.97S-137.992-77-137.992-77L-138-35l.008 13s-1.34 12.065 19.326 12.036 69 0 69 0l17-.036h8S-12-14-10-29.333s-1.34-36-1.332-46 .332-48.674.332-48.674.334-13.948-10.333-13.97-59-.023-59-.023zM18.333-137.333s-10.167.833-13 3.5-5.325 11.667-5.325 15 2.326 45.806 2.326 45.806L.008-30.417l-.008 9S-.625-10.333 11-10s38.5.37 38.5.37l54.25-.37s13.25 1.333 17.5-1.417 6.742-17.666 6.75-27.916 0-41.334 0-41.334l-.007-36.666s-3.493-21.167-15.243-20-94.417 0-94.417 0zM199.75-137.5H165l-12.75.105s-6.75 1.145-9.25 3.895-4.992 8.5-4.992 14.75v90.25S138-19 140.25-15.25s4.708 3.62 25.083 3.25 75.167 2 75.167 2H252s11.5-4.25 12.75-7.75S266-37.563 266-37.563V-126.5s.25-8.5-11.5-11.5-36.75.605-36.75.605l-18-.105M300-138s-14.175 1.167-18.667 7.667S276-119 276-115.5l.008 49.5s-.016 36.25-.008 40.5 0 10.5 5 13 15 3.213 26 2.98 53.416-1.913 60.666-2.147 22.75 1.166 27-.334S404-16.25 404-23.5V-121s2.498-10.21-8.333-13.667c-9.358-2.987-10.417-2.593-35.917-2.838S300-138 300-138zM427.668-138s-9.008.333-11.334 7S414-117 414-115l.008 75.667L414-25s.002 15.525 13.668 15.246 40.666-.28 40.666-.28l41.334.034 17-.033S540.332-8.333 542-20s0-94 0-94l.74-13.333s-3.607-10.917-15.072-10.917H461l-33.332.25M-118.914 1.18s-10.167.834-13 3.5c-2.833 2.667-5.325 11.668-5.325 15v45.186l-.013 39.635.006 12.598s-.625 11.084 11 11.417 38.5.37 38.5.37l54.25-.37S-20 128-15.75 125.25s6.487-7.152 6.495-17.402.008-50 .008-50l-1.503-43.333S-12.9-1.038-24.497 1.18c-12.128 2.32-94.417 0-94.417 0zM128.265 23.096s1.75-15.008-4.75-19.5-14.25-4.5-17.75-4.5l-49.5.008s-36.25-.016-40.5-.008-10.5 0-13 5-3.213 15-2.98 26-.232 54.75 0 62-1.02 22.75.48 27 6.25 8 13.5 8h97.5s12.068 3.94 15.525-6.892c2.986-9.358.734-11.858.98-37.358s.495-59.75.495-59.75zM266.018 57.23l-.022-39.667S264.033 2.23 252.026.897C240.018-.437 205.018-.43 205.018-.43l-42-.007-13 .008s-12.065-1.34-12.036 19.327c.03 20.666 2.018 65.51 2.018 65.51l-1.982 20.488v8s4 12.667 19.333 14.667 34.668-.016 44.668-.008 47.666.893 47.666.893 16.29-1.55 16.312-12.218.022-59 .022-59zM276.843 114.674s.334 9.008 7 11.334 14 2.334 16 2.334 72.397-2.34 72.397-2.34l18.093.332s15.035 2.006 14.756-11.66-.28-40.666-.28-40.666l.033-41.334L404 20s2.51-17.99-9.157-19.658-94 0-94 0l-13.334-.74s-10.917 3.607-10.917 15.072V81.34l.25 33.334M413.566 104.792s-1.75 15.008 4.75 19.5 14.25 4.5 17.75 4.5l49.5-.008s36.25.016 40.5.008 10.5 0 13-5 3.213-15 2.98-26 .232-54.75 0-62 1.02-22.75-.48-27-6.25-8-13.5-8h-97.5s-12.068-3.94-15.525 6.892c-1.97 6.18.902 8.554.626 37.317-.245 25.5-2.1 59.792-2.1 59.792zM-136.25 210.75l-1.746 38.688s1.963 15.333 13.97 16.666c12.008 1.334 47.008 1.326 47.008 1.326l42 .008 13-.008s12.065 1.34 12.036-19.326c-.03-20.666 0-69 0-69V164.55l-.036-10.445s-4-12.667-19.333-14.667-34.668.016-44.668.008-47.666-.893-47.666-.893-16.29 1.55-16.312 12.218 1.746 59.98 1.746 59.98zM12.294 138.25s-9.008.334-11.334 7-2.334 14-2.334 16l.008 75.667-.008 14.333s.002 15.525 13.668 15.246 40.666-.28 40.666-.28l41.334.034 17-.033s13.664 1.7 15.332-9.967 0-94 0-94l.74-13.334S123.76 138 112.295 138H45.627l-33.333.25M266.12 157.836s-.835-10.167-3.5-13c-2.668-2.833-11.67-5.325-15-5.325h-45.187l-39.644 2.022-12.59-2.028s-11.083-.625-11.416 11-.37 38.5-.37 38.5l.37 54.25s-1.333 13.25 1.417 17.5 9 6.734 19.25 6.742 50 .008 50 .008l42-.008s15.834-3.492 14.668-15.242c-1.166-11.75 0-94.418 0-94.418zM277.736 204.866v34.75l.105 12.75s1.146 6.75 3.896 9.25 8.5 4.992 14.75 4.992h90.25s9.5.008 13.25-2.242 4.383-4.824 4.014-25.2 0-74.004 0-74.004v-12.834c0-4-3.667-9.583-7.167-10.833s-19.16-2.88-19.16-2.88h-88.937s-8.5-.25-11.5 11.5.605 36.75.605 36.75l-.104 18M517.812 266.766s15.008 1.75 19.5-4.75S540 245.75 540 242.25s1.804-47.484 1.804-47.484.016-36.25.008-40.5 0-10.5-5-13-15-3.213-26-2.98c-11 .233-54.795 1.98-62.045 2.214-7.25.232-23.017-1.25-27.267.25s-5.5 3.75-5.5 11-2.188 64.766-2.188 64.766v33.25s-3.94 12.068 6.892 15.525c9.358 2.987 11.858.735 37.358.98 25.5.246 59.75.496 59.75.496z"/><g><path d="M-37.44-119.547s-.298-4.44-8.017-4.446c-7.72-.007-18.704-.297-22.563 2.223-3.86 2.52-11.58 9.645-11.58 24.192v14.548s.89 2.375-2.374 2.672-6.53 0-6.53 0-4.158-.148-4.01 6.68c.15 6.83-.003 11.875-.003 11.875s-1.035 2.672 3.418 3.117l4.455.445s5.493-2.822 4.75 8.46c-.743 11.282.148 17.962.148 17.962V-14.3s-.297 4.297 6.383 4.297h12.617s4.453.896 4.157-5.93c-.297-6.83-.297-35.48-.297-35.48v-5.938s.147-3.416 2.523-3.713c2.375-.296 10.39 0 10.39 0s1.486.892 2.674-5.937c1.187-6.83 1.187-8.907 1.187-8.907s2.228-3.563-1.93-3.563c-4.156 0-10.836-.297-10.836-.297s-4.007.296-4.007-5.344c0-5.64.297-12.767.297-12.767s.446-5.196 5.938-5.196 10.54.148 10.54.148 2.67-.296 2.67-6.086v-10.537z" fill="#FFF"/><g fill="#FFF"><path d="M44-107.25c-1-2.75-8.5-5.75-13-2.25s-4.25 9.75-3.5 10.75 4.322 6 8.036 5 8.908-1.124 8.908-6.25.556-4.5-.444-7.25zM31.5-86s-3.25-1-3.25 4-.25 37 0 38.5 0 4.75 3.25 5.5 7 0 7 0 4-1 4.25-7 0-37.25 0-37.25 0-3.413-2.25-3.832-9 .082-9 .082zM57.5-86.25s-4.75.5-4.75 3.75v41s.5 3.666 4.75 3.833 6.5 0 6.5 0S67.75-36.25 67.75-44v-22.985s1.75-6.765 8-7.015 6.25 1.5 8 2.5 1.5 9.25 1.5 12.5.013 17.25.013 17.25S86.75-37.584 91-37.667s5.5.102 5.5.102 4.25.315 4-8.185-.5-25.75-1-28.25-1.75-7.75-4.75-9.5-4-3-8-2.75-29.25 0-29.25 0z"/></g><path d="M175.25-110s-16 1-19.5 8.25-3 19.75-3 24.75-.024 30-.024 30 1.5 10 11.262 10.25 27.013 0 27.013 0l26.5 1.25h18s13-.5 15-11.5 1-30 1.25-32.75.035-16.25.035-16.25 1.965-12.75-15.285-14-61.25 0-61.25 0z" fill="#FFF"/><path d="M193.5-90.25L218-74s.75 2.5-1.75 3.5S193.5-57 193.5-57s-3.25 1.25-3.5-3.75-2.51-33.486 3.5-29.5z"/><path d="M393-106.5l-11.375 2.75s7.875-5.125 8.375-11.875c0 .5-13.568 5.557-13.568 5.557S369.75-117.5 358.5-116.5s-16.48 9.654-17.656 12.583c-2.51 6.25-1.51 13.083-1.51 13.083s-2 1-5.834.204c-5.313-1.104-12.667-3.037-20.75-7.287-3.074-1.616-7.233-4.19-11.75-8.083-3.316-2.858-7.25-10.592-8.167-2.833-.736 6.227-1.666 11 2.084 18.167.868 1.66 5.22 4.94 5.317 5.637s-.787.73-2.787.73-5.697-4.95-5.697.05 4.5 11.833 7.5 14.417 11.095 4.326 8.75 4.584c-3.495.385-10.958-1.23-8.5 2.668 2.416 3.833 8.23 9.834 13.833 11.333 5.916 1.584 5.75 1.418 2.917 3.25-2.527 1.637-4.25 3.584-11.667 5.834C300.038-40.788 293.125-41 293.125-41s-9.375.125-.875 3.5c6.14 2.438 19.625 7.75 39.75 5.5 15.992-1.788 25.968-10.284 31.75-15.75 9.125-8.625 12-12.5 15.375-25.125 1.968-7.363 2.84-21.386 2.84-22.636S388.75-97 393-106.5zM427-98.667v6h101.667v-18S528-121.834 513.833-124.5s-15.166.333-24.166 0-35.334-1.114-35.334-1.114-16.5-3.885-23.833 7.28c-2.662 4.285-3.5 8.867-3.5 8.867v10.8z" fill="#FFF"/><path d="M433.667-128.5v32H451s3.666-2.5 3.333-5.667.02-28.167.02-28.167l-20.686 1.834zM507.167-118.333s-5.5-.5-5.834 4.917 0 10.917 0 10.917.167 3.5 4.667 3.667 10.667 0 10.667 0 2.666.333 3.333-4.833S520-115 520-115s.166-3.357-3.667-3.345-9.166.012-9.166.012z"/><path d="M455.5-89.5h-24.667s-3.834-.167-4.167 5.333 0 42.333 0 42.333-.666 8.666 5.667 13 11.166 5.333 14.833 5.5 35.334 0 35.334 0l24 .074s8.926 1.26 13.796-2.074 7.87-6 8.037-13 0-35.69 0-35.69l.074-11.81V-89.5H455.5z" fill="#FFF"/><path d="M460-94.5s17-11.833 31.5-2 12.834 21 12.5 24.667-6.5 20.333-19 22.5-19.834.167-25.834-6.667S451-67.5 451.5-78.333 460-94.5 460-94.5z" stroke="#FFF" stroke-miterlimit="10"/><path d="M472.666-96.5c-5.5.333-11.5 5.167-14.166 10.5s-4.834 11-2.334 17.833S461.5-56.333 469.833-53s20.667-1.334 23.667-4.334 9.166-13.332 6.333-22.5C497-89 494.166-92.5 488.333-95s-10.167-1.834-15.667-1.5z" fill="#FFF"/><path d="M477-91s-7.5 0-11.167 4.167-5.167 9.667-4.5 14.667 4.667 11.833 11 14 14-.5 16.667-3.5 6.834-8.667 6-15.167c-.834-6.5-4.167-9-7.167-11.667S477-91 477-91z"/><path d="M-45.75 41.25s.5-3.75 3.5-3.75 3.25 1.75 3.5 3.75 0 9.25 0 9.25-.027 18.25.11 19.25S-38.75 76-41 76s-4.75-1.25-4.75-3.5.25-21.75.25-21.75l-.25-9.5z" fill="#FFF"/><path d="M-55.625 53S-62 52.875-62 54.625V58s-.5 2.25 4.5 2.25h23.75s10.227.244 10.75-2c.875-3.75-.25-5-5.5-5S-55.625 53-55.625 53zM-72.25 13.625h7.625s4.625-.125 1.375 2-5.75 2.75-7.375 2.75H-73.5s-2.375-.75 0 1.75 8 9.375 7 18.125-5.25 11.375-7.5 13.625-4.75 4.875-4.75 4.875-4.875 5.375 1.625 10.375 12.875 11.75 14.125 18 .125 14-5.375 19.25-14.375 11-23.5 11-24.375 0-29.875-10.25c-3.5-6.524-2.117-16.102 3.008-21.102s10.867-9.023 21.367-9.648 8.75-1 8.75-1-3.297-2.625-3.297-7.5c0-2.574 2.322-7-.94-6.5S-109 60.25-114.625 48.5s-1.125-18.25 1.875-22.625 8.15-12.002 19.888-12.25 19.362 0 19.362 0h1.25z" fill="#FFF"/><path d="M-89.375 18.75s-4.625-2-9 0-7.75 6.375-7.75 13 3 15.625 6.5 19 10.25 5.75 15.5 3.125 6-5.75 6.375-10.875-2.75-13.125-4.75-17.375-6.875-6.875-6.875-6.875zM-82.125 80c-2.327-.75-6-2.374-12.875-2-7.62.414-10.975 2.55-15.125 6.25-3.266 2.91-4.5 8.5-2.25 12.875 3.272 6.363 5.625 8.5 11.875 10.375s14.625 2.625 20.25 0 9.875-6.125 9.625-13.5-4.356-9.102-7.094-11.25c-1.575-1.236-3.956-2.605-4.405-2.75z"/><path d="M74.833 20.417c-9.167-1.334-17.667.333-17.667.333s-.583-.5-3.583-2S38 14.333 28.75 20.125C22.678 23.927 17.5 27.5 16 37.5s1.25 12.756 2.5 19.128-2.813 18.685 4.938 31.185S40.198 105.45 46.668 108s17.905 4.024 22.405 4.024 13.364 2.478 17.427 2.476c5.267-.003 12.5-.602 17.25-5.3s9.625-11.075 9.625-18.325-1.04-9.208-2.874-14.208c.222-5.252 2.75-15.917-3-29.667S84 21.75 74.833 20.417z" fill="#FFF"/><path d="M74.5 49c1.334 2.75 7 7.496 11.75 3.998s.25-10.248-3-12.748S73 31.75 59.5 34s-18.25 7.25-19.75 11.75-2 12.25 3.75 16 13.5 7 22 8.75 12.25 5.89 12.25 7.445 0 5.555-4.75 7.305-10.25 3.5-14.25 1.75-6.5-5.61-8-9.055-6-4.195-10.25-1.945-2.566 8.697-1.738 10.25c1.155 2.166 8.238 10 15.988 11.25s20 1.395 27.25-3.928 6.5-9.627 6.75-15.627S86.5 64 79 61.5s-11.5-2.75-18.5-4.75-8.75-6.5-6.5-9.75 5.002-3.646 10-3.5c2.822.082 4.528.606 6.696 1.655C72.08 45.825 74.5 49 74.5 49z"/><g fill="#FFF"><path d="M203.742 83.668H239s8.666.334 10.333-7-.998-12.334-3.832-14.5-11.666-1.5-11.666-1.5 0-6.67-4.5-11.335-10.166-7.5-15.333-7.666-10.258 1.666-10.258 1.666M202.046 83.146s.396-34.71 0-37.833c-.396-3.125-1.72-.657-1.72 1.316s-.53 29.11-.53 29.11v5.593s.133 4.777 2.25 1.813zM193.866 83.374s.424-29.35 0-31.99c-.424-2.642-1.84-.556-1.84 1.113s-.567 24.617-.567 24.617v4.728s.14 4.04 2.406 1.532zM175.644 52.75s-.382 27.642 0 30.13c.38 2.49 1.653.524 1.653-1.048 0-1.573.51-23.187.51-23.187v-4.452s-.127-3.803-2.163-1.444zM163.963 61.842s-.29 19.658 0 21.43c.29 1.77 1.254.37 1.254-.746s.387-16.49.387-16.49V62.87s-.097-2.706-1.64-1.028zM157.592 80.88s.295-16.082 0-17.53-1.28-.304-1.28.61c0 .915-.394 13.49-.394 13.49v2.59s.098 2.214 1.674.84zM197.49 47.5s-1.606-2.246-1.822 2.627c-.215 4.873 0 19.706 0 19.706l-.096 10.5s-.428 3.13.96 3.732c1.39.602.96-3.566.96-4.732s.12-16.086.31-21.167.225-7.833-.31-10.666zM189.824 50.95s-1.607-2.04-1.823 2.382c-.214 4.422 0 17.88 0 17.88l-.095 9.527s-.428 2.84.96 3.386c1.39.546.96-3.236.96-4.294s.12-14.596.31-19.205c.187-4.61.225-7.107-.31-9.678zM185.7 83.266s.424-29.716 0-32.39c-.424-2.676-1.84-.563-1.84 1.126 0 1.69-.567 24.925-.567 24.925v4.787s.14 4.09 2.407 1.552zM179.863 83.727s1.607 2.055 1.823-2.4c.215-4.455 0-18.016 0-18.016l.096-9.598s.428-2.862-.96-3.413c-1.39-.55-.96 3.26-.96 4.326s-.12 14.706-.31 19.35c-.187 4.646-.225 7.162.31 9.75zM173.478 83.71s.362-24.957 0-27.202c-.362-2.247-1.573-.474-1.573.946s-.483 20.932-.483 20.932v4.02s.12 3.436 2.056 1.304zM169.308 83.537s.286-18.893 0-20.593c-.285-1.7-1.24-.358-1.24.716s-.38 15.847-.38 15.847v3.044s.093 2.6 1.62.987zM161.475 83.14s.286-18.892 0-20.592c-.285-1.7-1.24-.358-1.24.716s-.38 15.847-.38 15.847v3.045s.093 2.6 1.62.986zM154.098 78.692s.286-10.515 0-11.462c-.285-.946-1.24-.2-1.24.4 0 .597-.38 8.818-.38 8.818v1.694c0 .002.093 1.448 1.62.55z"/></g><path d="M318.25 115.5s-1.75-14 0-21.5 5-20.25 6-25 1.75-9.25 1.75-9.25-3-5-1.75-11.25 3.197-10.28 7.75-11c5.006-.79 8.844.167 11 4.156 1.862 3.445-1.063 15.344-2.156 18.094s-3.594 9.75-.844 13 10 5.75 15.25 2 10.25-15.75 10.5-23.5S364.5 34.5 358.5 30s-14.5-6.334-23-5.25c-8.123 1.036-14.555 7.5-18.027 12.5s-5.223 13.25-4.223 18 2.94 7.632 3.5 8.75c1.083 2.167-.5 8.5-.5 8.5s-1.75.75-4.75-.25S300.75 64 301.5 48s15-26.5 21.75-29.75 16.083-5.417 28.5-3.5c8.926 1.378 21.5 9 25.5 20.5s2.5 25-.75 31.75-5.817 11.257-10.5 15.25c-4.68 3.99-12 5.5-17.75 5.25s-14-7-14-7-2.5 12.5-3.75 16.75-6.25 16.25-12.25 18.25zM473.25 14.03c-1 .056-4.25-.78-5.75 4.97s-3.79 10.584-6.667 14.17C458.267 36.365 449.75 40 449.75 40s-3.75 1.5-3.5 6-.012 5.75-.012 5.75-.238 4.25 5.012 4 7.25.01 7.25.01 2.75.434 2.75 8.212S461 95 461 95s-1.208 8.19 7.75 14.5c7.75 5.46 19 5.674 22.25 5.174s14.883-2.69 14.883-2.69 4.617-.483 4.867-6.733 0-7.5 0-7.5.49-3.02-5.75-1.25c-7.812 2.218-10.25 2.5-14.75 1.25s-7.5-4.25-7.5-11-.22-26.074-.22-26.074.178-5.8 4.095-5.8c4.258 0 16.875.124 16.875.124s2.625-.813 2.625-6.063.07-8.267.07-8.267-.008-3.733-2.508-3.733S485.5 37 485.5 37s-2.25-.125-2.5-7.875 0-12.938 0-12.938-.9-1.976-3.5-2.193c-2.125-.178-3.004-.144-6.25.036z" fill="#FFF"/><g><path d="M-118.74 247.24l24.49-7.99s7.5 4.25 16.75 5.25 19.625 1.5 32.125-8.75S-30.74 216.25-29.5 207s.5-19-6.25-29.75-16-15.01-22.75-17.75-17.25-3.75-25.5-1.5-18.625 8.25-23.375 13.75S-115.75 188-116.5 194s-.25 13.5 1.25 18 4.75 11 4.75 11l-8.24 24.24z" fill="#FFF"/><path d="M-106.324 235.447l13.434-3.947s8.632 5.38 16.346 6.213c7.714.836 16.68.21 27.1-8.338 10.427-8.548 11.893-15.218 12.928-22.934 1.035-7.71-1.02-13.81-6.65-22.773-5.628-8.964-11.903-14.552-17.533-16.836-5.626-2.282-14.383-3.126-21.263-1.25-6.88 1.878-14.802 7.715-18.763 12.3s-7.022 13.863-7.647 18.87c-.625 5.003-.9 10.11.35 13.86 1.252 3.754 5.936 11.548 5.936 11.548l-4.237 13.29z"/><path d="M-81.625 194.625l1.5-1.875s1.25-1.875 0-4-2.375-6.625-2.375-6.625-.875-2.875-3.375-3-3.43.03-4.625 1.125c-1.37 1.255-3.938 3.382-4.5 6.875-.4 2.486.25 5.875 2.125 10.25s3.25 4.25 4.5 6.375 7.11 8.625 8.806 10.375S-73 219-71.75 219.5s5.285 2.736 8.75 3.25c3.375.5 6.25.125 9.375-2.375s3.544-4.12 3.75-6c.15-1.375.375-2.25-.875-2.875-1.56-.78-3.375-.75-4.375-1.25s-4-3.25-4-3.25-1.75-1.25-3.375.875-3 3.25-3 3.25-.625 2-2.875 1.375-6.75-5-6.75-5-3.625-3.375-4.625-4.5-2.75-4.125-2.75-4.125-1.333-1.866.125-3.5.75-.75.75-.75z" fill="#FFF"/></g><path d="M29 167l-14 13s-1.833 2.667 0 5 3.833.5 5.5 0 2.667-2.167 5.5-1.667 2.5 1.5 3.833 4.834 6.167 11.166 6.333 17.5c.083 3.16 5.333 17.667 6.5 20.833s3.667 10.166 7.167 14.666 12 6.075 16.333 5.834 9.833-4.166 20.5-16c11.837-13.13 14.833-23.398 17.667-29.73S115 179.832 115 173.832s-2.833-11-7.833-13.666-13.5-3.166-19 0S77.667 166.833 75 172c-2.06 3.988-3.833 10-3.833 10s5.666-4 11.5-1.333c5.433 2.484 2.834 9.5 1.5 12.833s-6.917 12.43-9.5 16.167C72.92 212.194 70.5 214.5 69 214.5s-2.504 1.834-5.004-6.166S58.813 187.63 57.333 183c-1.333-4.165-1.322-14.263-3.666-18.333-1.848-3.21-4.5-6.69-9.834-5.834C38.203 159.738 29 167 29 167zM181.777 185.335c-4.137-.175-10.007.88-13.262 7.906s-1.787 16.867 1.17 19.327c2.954 2.46 10.6 8.784 19.954 4.567 9.353-4.217 10.077-12.65 10.066-18.27-.01-5.623-5.165-8.787-7.33-10.192-2.166-1.404-6.462-3.162-10.6-3.337zM222.58 185.335c-4.137-.175-10.007.88-13.262 7.906-3.256 7.028-1.787 16.867 1.168 19.327 2.956 2.46 10.6 8.784 19.955 4.567 9.356-4.217 10.08-12.65 10.07-18.27-.012-5.623-5.167-8.787-7.333-10.192-2.165-1.404-6.46-3.162-10.597-3.337z" fill="#FFF"/><g fill="#FFF"><path d="M313 192.5s-1.75-5 4.25-4.25 13.25 3.75 18.25 7 12.5 12.5 14.75 18.5 2.25 9.5 2.25 11.25 0 4-2.25 4h-7.5s-2.742.375-2.684-3-1.19-10.25-4.066-13.75-5.875-9.125-10.125-10.25-8-1.625-10.125-1.75-3.1-.625-2.987-2.625.237-5.125.237-5.125z"/><path d="M312.754 170.875s-.63-3.5 13.37-2c6.014.645 17.25 7.094 22.25 10.344s15.415 14.907 17.665 20.907 4.55 11.277 5.335 14.123c.466 1.687 1.875 14.763-.375 14.763h-8.5s-1.75-1.263-2.25-7.263c-.28-3.364-1.898-11.88-4.25-15.75-2.75-4.528-9.74-12.79-14.375-16.375-3.477-2.69-11.985-6.808-15.89-8.217-2.002-.723-13.094-1.283-12.98-3.283s0-7.25 0-7.25zM315.875 213.875s.875-2.625 4.875-2.125 5.125.875 6.875 3.25 1 5 1 6.25-.875 3.625-2.25 4.75-1.59 1.875-4.045 2-5.33.125-7.08-2.25-2.75-3.75-2.5-6.875 3.125-5 3.125-5z"/></g><path d="M443.08 209.455c.517 8.535 8.017 17.845 16.294 21.983 8.275 4.14 17.07 7.5 27.674 3.622 10.604-3.88 18.364-8.277 23.536-21.21s-2.07-32.07-6.726-36.727-20.688-14.224-34.916-9.827c-14.224 4.396-19.655 8.794-23.534 17.846-3.88 9.052-2.846 15.778-2.328 24.313z" fill="#FFF"/><path d="M448.77 203.005s0 12.94 7.19 19.268c7.19 6.327 16.68 8.916 25.31 7.766 8.626-1.152 20.416-8.056 24.156-18.982 3.738-10.927-.864-24.16-6.04-28.76s-14.955-11.79-26.17-10.352c-11.218 1.438-15.53 7.19-20.13 12.366-4.604 5.175-4.315 18.693-4.315 18.693z"/><path d="M467.334 171.334s17 19.667 20.667 34 5.334 23.68 5.334 23.68l-6 2.987s-2.333-22.334-7-30-18-27.333-18-27.333l5-3.333z" fill="#FFF"/><path d="M446.236 195s23.765.334 31.598-3.666 19.833-14.667 19.833-14.667l4.334 5s-14.074 10.684-16.333 11.667-22.666 7.686-27.333 7.843-14 .49-14 .49l1.902-6.666zM452.334 224s4.667-10.48 12-15.407 17.667-10.08 28-9.836 16.667 2.42 16.667 2.42v5.157s-10.33-2.52-14.665-2.426-13.668 1.943-19.668 4.685-17.332 18.49-17.666 19.45-4.666-2.71-4.666-2.71" fill="#FFF"/></g></svg>